<?xml version="1.0" encoding="utf-8"?>
<!-- Generator: Adobe Illustrator 15.0.0, SVG Export Plug-In . SVG Version: 6.00 Build 0)  -->
<!DOCTYPE svg PUBLIC "-//W3C//DTD SVG 1.1//EN" "http://www.w3.org/Graphics/SVG/1.1/DTD/svg11.dtd">
<svg version="1.1" id="Layer_1" xmlns="http://www.w3.org/2000/svg" xmlns:xlink="http://www.w3.org/1999/xlink" x="0px" y="0px"
	 width="179.001px" height="50.361px" viewBox="35.499 49.82 179.001 50.361" enable-background="new 35.499 49.82 179.001 50.361"
	 xml:space="preserve">
<g>
	<path d="M87.647,86.237l12.603-35.676h3.709l-17.578,49.62h-2.967L71.991,71.105l-10.162,29.076h-2.967L42.841,59.24
		c-1.138-2.819-2.275-4.771-3.412-5.859c-1.138-1.087-2.448-1.731-3.931-1.927v-1.484c0.198,0,0.679-0.024,1.445-0.074
		c0.766-0.048,1.323-0.074,1.669-0.074c1.285,0,2.62,0.088,4.004,0.26c1.383,0.174,2.72,0.582,4.005,1.224
		c1.287,0.644,2.51,1.594,3.672,2.856c1.163,1.261,2.163,2.955,3.005,5.081l10.013,25.59l6.674-18.989l-2.595-6.601
		c-1.139-2.819-2.363-4.771-3.672-5.859c-1.311-1.087-2.707-1.731-4.192-1.927v-1.484c0.198,0,0.643-0.024,1.335-0.074
		c0.693-0.048,1.212-0.075,1.558-0.075c1.287,0,2.622,0.088,4.006,0.26c1.383,0.173,2.73,0.582,4.042,1.224
		c1.311,0.643,2.534,1.594,3.672,2.856c1.138,1.261,2.126,2.955,2.967,5.081L87.647,86.237z"/>
	<path d="M120.384,90.169c0.889,2.175,1.976,3.906,3.263,5.19c1.287,1.289,3.864,2.824,4.598,1.781l1.198,2.372
		c-0.716,0.071-2.298,0.112-3.016,0.186c-0.717,0.075-1.347,0.112-1.889,0.112c-1.187,0-2.461-0.112-3.821-0.335
		c-1.36-0.222-2.696-0.666-4.005-1.334c-1.311-0.668-2.548-1.632-3.709-2.894c-1.162-1.261-2.187-2.955-3.079-5.08l-1.715-4.154
		H88.374l-1.994,14.168h-2.967l17.017-49.62h3.34L120.384,90.169z M89.94,82.676h16.854l-8.203-19.359L89.94,82.676z"/>
	<path d="M169.039,50.562l-29.075,45.614h28.704v3.339h-40.424v-2.372l27.591-43.317H139.74c-2.622,0-4.699,0.668-6.23,2.003
		c-1.533,1.335-2.299,3.66-2.299,6.971h-2.224v-6.304c0-0.742,0.086-1.471,0.259-2.187c0.173-0.716,0.494-1.348,0.964-1.892
		c0.469-0.543,1.113-0.989,1.928-1.335c0.815-0.345,1.866-0.519,3.153-0.519L169.039,50.562L169.039,50.562z"/>
	<path d="M206.788,90.02c0.889,2.178,1.976,3.906,3.265,5.193c1.285,1.287,2.766,2.026,4.447,2.224v1.854
		c-0.395,0.098-0.951,0.186-1.667,0.261c-0.716,0.074-1.346,0.11-1.89,0.11c-1.187,0-2.46-0.11-3.821-0.334
		c-1.36-0.223-2.695-0.667-4.004-1.335c-1.312-0.666-2.548-1.631-3.71-2.892c-1.162-1.262-2.187-2.956-3.079-5.082l-1.715-4.154
		h-19.837l-6.114,13.498h-3.708l21.879-48.951h3.34L206.788,90.02z M176.345,82.527H193.2l-8.202-19.359L176.345,82.527z"/>
</g>
</svg>
