<?xml version="1.0" encoding="utf-8"?>
<!-- Generator: Adobe Illustrator 15.0.0, SVG Export Plug-In . SVG Version: 6.00 Build 0)  -->
<!DOCTYPE svg PUBLIC "-//W3C//DTD SVG 1.1//EN" "http://www.w3.org/Graphics/SVG/1.1/DTD/svg11.dtd">
<svg version="1.1" id="Layer_1" xmlns="http://www.w3.org/2000/svg" xmlns:xlink="http://www.w3.org/1999/xlink" x="0px" y="0px"
	 width="231px" height="108.785px" viewBox="-49.04 -59.425 231 108.785" enable-background="new -49.04 -59.425 231 108.785"
	 xml:space="preserve">
<g>
	<g>
		<path d="M52.147,35.416L64.751-0.26h3.709L50.881,49.36h-2.967L36.492,20.284L26.33,49.36h-2.967L7.341,8.419
			C6.204,5.599,5.066,3.647,3.93,2.559c-1.138-1.087-2.448-1.73-3.931-1.927v-1.484c0.198,0,0.679-0.023,1.445-0.073
			c0.766-0.048,1.323-0.074,1.669-0.074c1.285,0,2.62,0.088,4.004,0.26c1.383,0.174,2.72,0.582,4.005,1.225
			c1.287,0.644,2.51,1.594,3.672,2.855c1.163,1.261,2.163,2.955,3.005,5.081l10.013,25.59l6.674-18.989l-2.595-6.601
			c-1.139-2.819-2.363-4.771-3.672-5.859c-1.311-1.087-2.707-1.73-4.192-1.927v-1.483c0.198,0,0.643-0.024,1.335-0.074
			c0.693-0.048,1.212-0.075,1.558-0.075c1.287,0,2.622,0.088,4.006,0.26c1.383,0.173,2.73,0.582,4.042,1.225
			c1.311,0.643,2.534,1.594,3.672,2.855c1.138,1.261,2.126,2.955,2.967,5.081L52.147,35.416z"/>
		<path d="M84.884,39.347c0.89,2.175,1.977,3.906,3.264,5.19c1.287,1.289,3.865,2.824,4.597,1.781l1.199,2.372
			c-0.717,0.07-2.299,0.111-3.016,0.186c-0.719,0.075-1.347,0.112-1.89,0.112c-1.187,0-2.461-0.112-3.82-0.335
			c-1.36-0.223-2.696-0.666-4.006-1.334c-1.311-0.668-2.547-1.633-3.709-2.895c-1.162-1.261-2.187-2.955-3.078-5.08l-1.715-4.153
			H52.875L50.88,49.36h-2.967L64.931-0.26h3.34L84.884,39.347z M54.44,31.854h16.854l-8.203-19.358L54.44,31.854z"/>
		<path d="M133.54-0.259l-29.076,45.613h28.705v3.34H92.745v-2.372l27.59-43.317h-16.094c-2.623,0-4.699,0.668-6.23,2.003
			c-1.533,1.335-2.299,3.66-2.299,6.971h-2.225V5.675c0-0.742,0.086-1.471,0.26-2.187c0.172-0.717,0.494-1.349,0.963-1.893
			c0.471-0.543,1.113-0.989,1.93-1.335c0.814-0.345,1.865-0.519,3.152-0.519L133.54-0.259L133.54-0.259z"/>
		<path d="M171.288,39.199c0.891,2.178,1.977,3.905,3.266,5.192c1.285,1.287,2.766,2.026,4.447,2.225v1.854
			c-0.395,0.099-0.951,0.187-1.668,0.261c-0.715,0.074-1.346,0.11-1.889,0.11c-1.188,0-2.461-0.11-3.822-0.334
			c-1.359-0.223-2.695-0.667-4.004-1.335c-1.311-0.666-2.547-1.631-3.709-2.892c-1.162-1.263-2.188-2.956-3.08-5.082l-1.715-4.154
			h-19.836l-6.115,13.498h-3.707l21.879-48.951h3.34L171.288,39.199z M140.846,31.706H157.7l-8.201-19.359L140.846,31.706z"/>
	</g>
	<g>
		<g>
			<polygon fill="#231F20" points="120.581,-50.6 123.446,-52.106 126.314,-50.6 125.767,-53.792 128.086,-56.052 124.882,-56.521 
				123.446,-59.425 122.013,-56.521 118.809,-56.052 121.128,-53.792 			"/>
		</g>
		<g>
			<g>
				<polygon fill="#231F20" points="135.336,-36.967 136.373,-36.967 123.446,-49.889 115.206,-41.65 				"/>
			</g>
			<g>
				<path fill="#231F20" d="M134.998-27.056l-2.406,0.425c0.394,0.235,0.671,0.646,0.671,1.139c0,0.742-0.602,1.344-1.344,1.344
					c-0.741,0-1.341-0.603-1.341-1.344c0-0.32,0.129-0.604,0.315-0.835l-4.184,0.743c1.031,0.088,1.853,0.926,1.853,1.98
					c0,1.114-0.903,2.015-2.016,2.015c-1.114,0-2.013-0.9-2.013-2.015c0-0.794,0.471-1.468,1.139-1.795l-5.284,0.939
					c0.363,0.183,0.62,0.551,0.62,0.986c0,0.618-0.5,1.12-1.119,1.12c-0.618,0-1.117-0.502-1.117-1.12
					c0-0.294,0.118-0.554,0.302-0.754l-12.159,2.16l-3.055,3.055l33.377,2.435l-1.784-1.784h8.234L134.998-27.056z"/>
			</g>
			<g>
				<path fill="#231F20" d="M113.355-28.513l-3.865,3.868l29.457-5.232l-5.354-5.351l-7.852-1.828
					c0.453,0.43,0.737,1.036,0.737,1.71c0,1.309-1.06,2.369-2.368,2.369c-1.308,0-2.367-1.06-2.367-2.369
					c0-1.065,0.706-1.954,1.671-2.25l-4.031-0.941c0.145,0.246,0.248,0.518,0.248,0.822c0,0.921-0.744,1.665-1.662,1.665
					c-0.919,0-1.664-0.746-1.664-1.665c0-0.578,0.314-1.064,0.764-1.361l-3.602-0.838l-2.947,2.947h4.517l-8.455,8.453H113.355z"/>
			</g>
			<g>
				<path fill="#231F20" d="M145.339-8.479l-5.846-5.847l-5.795-0.423c0.315,0.321,0.512,0.754,0.512,1.237
					c0,0.983-0.797,1.78-1.778,1.78c-0.98,0-1.774-0.796-1.774-1.78c0-0.587,0.306-1.082,0.745-1.403l-9.882-0.722
					c0.249,0.251,0.403,0.594,0.403,0.975c0,0.77-0.622,1.395-1.393,1.395c-0.768,0-1.39-0.624-1.39-1.395
					c0-0.462,0.239-0.853,0.587-1.106l-4.858-0.356c0.657,0.389,1.103,1.094,1.103,1.909c0,1.229-0.997,2.226-2.226,2.226
					c-1.227,0-2.219-0.997-2.219-2.226c0-0.925,0.565-1.716,1.37-2.053l-3.317-0.241l-8.028,8.03h19.237L119.261,0h8.372
					l-1.53-8.479H145.339z"/>
			</g>
		</g>
	</g>
	<rect x="-49.04" y="-19.578" fill="none" width="230.999" height="47.061"/>
	<text transform="matrix(1 0 0 1 -49.04 -9.1345)" font-family="'TeluguMN'" font-size="14">Merry Christmas from </text>
</g>
</svg>
